<svg xmlns="http://www.w3.org/2000/svg" width="126" height="36" viewBox="0 0 126 36">
    <g fill="none" fill-rule="evenodd">
        <path fill="#FFF" d="M77 0v24h48v12h-8v-4H69V0h8zM52 3c7.108 0 12.883 5.704 12.998 12.785L65 16v16H0v-8h14.7v-2.9c0-4.3-2.6-6.4-6.2-6.4-1.6 0-3.5.4-5.3 1.2l-.8-6.3c2.3-1 5-1.6 7.2-1.6 9.2 0 13.1 5.5 13.1 12v4h5.235a12.47 12.47 0 0 1-.835-4.5C27.1 12.596 32.696 7 39.6 7c.94 0 1.858.104 2.74.301A12.97 12.97 0 0 1 52 3zm.083 8H52a4.97 4.97 0 0 0-2.607.731 12.443 12.443 0 0 1 2.707 7.681V24H57v-8a5 5 0 0 0-4.917-5zm-12.409 4H39.6a4.5 4.5 0 0 0-.074 9H44.1v-4.5a4.5 4.5 0 0 0-4.352-4.498l-.074-.001z"/>
        <circle cx="121" cy="12" r="5" fill="#09F"/>
        <circle cx="105" cy="12" r="5" fill="#0C9"/>
        <circle cx="89" cy="12" r="5" fill="#00D358"/>
    </g>
</svg>
